<svg role="img" viewBox="0 0 24 24" xmlns="http://www.w3.org/2000/svg">
  <title>Overwatch 2</title>
  <path d="M12 0a12 12 0 1 0 12 12A12 12 0 0 0 12 0zm0 22.5A10.5 10.5 0 1 1 22.5 12 10.512 10.512 0 0 1 12 22.5z" fill="#F99E1A"/>
  <path d="M4.5 12a7.5 7.5 0 0 1 15 0h2A9.5 9.5 0 0 0 4.5 12Z" fill="#fff"/>
  <path d="M11 13.2 8.6 16.5h6.8L12.9 13.2Z" fill="#F99E1A"/>
  <path d="M17 7h1.5a1.5 1.5 0 0 1 0 3H17z" fill="#F99E1A"/>
  <path d="M17 11h2l2 4h-2l-2-4Z" fill="#F99E1A"/>
  <path d="M18 15h1.5l1 2H18z" fill="#F99E1A"/>
</svg>
