<?xml version="1.0" encoding="UTF-8"?>
<svg width="64" height="64" viewBox="0 0 64 64" fill="none" xmlns="http://www.w3.org/2000/svg">
  <rect width="64" height="64" rx="8" fill="#FF6600"/>
  <path d="M12 12 L52 12 L52 52 L12 52 Z" fill="#000000"/>
  <path d="M16 16 L48 16 L48 48 L16 48 Z" fill="#FF6600"/>
  <circle cx="32" cy="32" r="12" fill="#000000"/>
  <circle cx="32" cy="32" r="8" fill="#FFFFFF"/>
  <path d="M32 24 L32 40 M24 32 L40 32" stroke="#FF6600" stroke-width="2" stroke-linecap="round"/>
  <path d="M26 26 L38 26 L38 38 L26 38 Z" fill="none" stroke="#FF6600" stroke-width="1"/>
  <path d="M28 20 L36 20 L36 22 L28 22 Z" fill="#FFFFFF"/>
  <path d="M28 42 L36 42 L36 44 L28 44 Z" fill="#FFFFFF"/>
  <path d="M20 28 L22 28 L22 36 L20 36 Z" fill="#FFFFFF"/>
  <path d="M42 28 L44 28 L44 36 L42 36 Z" fill="#FFFFFF"/>
</svg>
