<svg role="img" viewBox="0 0 24 24" xmlns="http://www.w3.org/2000/svg"><title>Rainbow Six Siege</title><path fill="currentColor" d="M12 0C5.373 0 0 5.373 0 12s5.373 12 12 12 12-5.373 12-12S18.627 0 12 0zm0 2.4a9.6 9.6 0 0 1 9.6 9.6c0 2.055-.647 3.958-1.747 5.52L18 16.8V12l-2.4 2.4V12l-2.4 2.4V12l-1.2 1.2L9.6 9.6l2.4-2.4-1.2-1.2-4.8 4.8 1.2 1.2L9.6 9.6l1.2 1.2-3.6 3.6L6 13.2l-1.2 1.2-1.253 1.253A9.558 9.558 0 0 1 2.4 12 9.6 9.6 0 0 1 12 2.4zm6 8.4l-2.4 2.4V12l-1.2 1.2-1.2-1.2L18 9.6v1.2zM7.8 16.8l1.2-1.2 1.2 1.2-1.2 1.2-1.2-1.2zm4.8 0l1.2-1.2 1.2 1.2-1.2 1.2-1.2-1.2zm-2.4 2.4l1.2-1.2 1.2 1.2-1.2 1.2-1.2-1.2z"/></svg>